{"title":"Boondock.Saints.2.All.Saints.Day-Voltage","uid":5367077,"size":1936620546,"categoryP":"video","categoryS":"movies","magnet":"?xt=urn:btih:cf902ae339c99c8359a885352daa4a7c5a8270f6&amp;dn=Boondock.Saints.2.All.Saints.Day-Voltage&amp;tr=udp%3A%2F%2Ftracker.openbittorrent.com%3A80&amp;tr=udp%3A%2F%2Fopen.demonii.com%3A1337&amp;tr=udp%3A%2F%2Ftracker.coppersurfer.tk%3A6969&amp;tr=udp%3A%2F%2Fexodus.desync.com%3A6969","seeders":0,"leechers":1,"uploader":"raymondhome","files":-1,"time":1266298204,"description":"Love for All and Sharing is the first step to solving all the problems of humanity.\n\nWebsites I want to share.\n\n    &lt;a href=&quot;\nhttp://www.shareintl.org/&quot; rel=&quot;nofollow&quot; target=&quot;_NEW&quot;&gt;\nhttp://www.shareintl.org/&lt;/a&gt;\n\n    &lt;a href=&quot;\nhttp://www.lightmiddleway.com&quot; rel=&quot;nofollow&quot; target=&quot;_NEW&quot;&gt;\nhttp://www.lightmiddleway.com&lt;/a&gt;\n\n\nThank you very much\n\nNo credit for me...credit to EVERYONE for sharing\n &lt;a href=&quot;\nhttp://thepiratebay.se/user/raymondhome/&quot; rel=&quot;nofollow&quot; target=&quot;_NEW&quot;&gt;\nhttp://thepiratebay.se/user/raymondhome/&lt;/a&gt;\n\nPLOT\nThe MacManus brothers are living a quiet life in Ireland with their father, but when they learn their beloved priest has been killed by mob forces, the duo return to Boston to bring justice to those responsible.\n\nDuration                         : 1h 57mn\nVideo\nFormat                           : MPEG-4 Visual\nFormat profile                   : Streaming Video@L1\nFormat settings, BVOP            : Yes\nFormat settings, QPel            : No\nFormat settings, GMC             : No warppoints\nFormat settings, Matrix          : Custom\nCodec ID                         : XVID\nCodec ID/Hint                    : XviD\nDuration                         : 1h 57mn\nBit rate                         : 1 993 Kbps\nWidth                            : 640 pixels\nHeight                           : 320 pixels\nDisplay aspect ratio             : 2.000\nFrame rate                       : 29.970 fps\nResolution                       : 24 bits\nColorimetry                      : 4:2:0\nScan type                        : Progressive\nBits/(Pixel*Frame)               : 0.325\nStream size                      : 1.63 GiB (91%)\nWriting library                  : XviD 1.2.1 (UTC 2008-12-04)\nAudio\nFormat                           : MPEG Audio\nFormat version                   : Version 1\nFormat profile                   : Layer 2\nCodec ID                         : 50\nCodec ID/Hint                    : MP1\nDuration                         : 1h 43mn\nBit rate mode                    : Constant\nBit rate                         : 224 Kbps\nChannel(s)                       : 2 channels\nSampling rate                    : 48.0 KHz\nResolution                       : 16 bits\nStream size                      : 165 MiB (9%)\nAlignment                        : Aligned on interleaves\nInterleave, duration             : 27 ms (0.82 video frame)\nInterleave, preload duration     : 192 ms\nTitle                            : audio\n\nVoltage NOTES\nSource........::: SilentNinja and Mr H [Thanks bro's]\nEncoder.......::: BMB\nNotes.........::: ok ive done a shit load of work on this release, fixing colors sharpness, noise, even used a dehaloer to clean the edges of it was a really really big encode i done heaps of shit some stuff not mentioned here, ive done the best to level colors out and clean it up, spent 19 hours encoding so let me no what you think\n\ncredit Voltage &amp; to all the people who made it possible for me to share this with everyone\n\n*****help what we can with haiti...the world is ONE big family*****","torrent":{"xt":"urn:btih:cf902ae339c99c8359a885352daa4a7c5a8270f6","amp;dn":"Boondock.Saints.2.All.Saints.Day-Voltage","amp;tr":["udp%3A%2F%2Ftracker.openbittorrent.com%3A80","udp%3A%2F%2Fopen.demonii.com%3A1337","udp%3A%2F%2Ftracker.coppersurfer.tk%3A6969","udp%3A%2F%2Fexodus.desync.com%3A6969"],"infoHash":"cf902ae339c99c8359a885352daa4a7c5a8270f6","infoHashBuffer":{"type":"Buffer","data":[207,144,42,227,57,201,156,131,89,168,133,53,45,170,74,124,90,130,112,246]},"announce":[],"urlList":[]}}